<svg xmlns="http://www.w3.org/2000/svg" viewBox="0 0 2048 2048" style="enable-background:new 0 0 2048 2048" xml:space="preserve"><style>.st20{fill:#542a19}</style><g id="Layer_8"><linearGradient id="SVGID_1_" gradientUnits="userSpaceOnUse" x1="280.28" y1="1024" x2="1767.72" y2="1024"><stop offset="0" style="stop-color:#fedc52"/><stop offset=".995" style="stop-color:#fcb117"/></linearGradient><circle cx="1024" cy="1024" r="743.72" style="fill:url(#SVGID_1_)"/><path d="M952.04 442.28c-158.4-.8-367.2 87.84-411.84 297.87" style="opacity:.81;fill:none;stroke:#fff;stroke-width:60;stroke-linecap:round;stroke-miterlimit:10"/><path class="st20" d="M1402.26 760.15c-9.27 0-17.58-6.48-19.56-15.91-6.74-32.2-20.11-52.4-40.88-61.74-44.4-19.96-125.86 4.57-249.05 75-9.59 5.48-21.81 2.15-27.29-7.44s-2.15-21.81 7.44-27.29c63.16-36.11 115.08-60.24 158.74-73.77 53.07-16.44 94.47-17.42 126.57-2.99 32.81 14.75 54.21 45.04 63.63 90.03 2.26 10.81-4.67 21.41-15.48 23.67-1.39.3-2.76.44-4.12.44zM694.25 853.21c-4.2 0-8.44-1.32-12.05-4.05-8.81-6.67-10.55-19.21-3.88-28.02 54.92-72.58 117.82-55.68 178.64-39.34 29.73 7.99 60.48 16.25 93.65 16.29 11.05.01 19.99 8.98 19.98 20.02-.01 11.04-8.96 19.98-20 19.98h-.02c-38.43-.04-73.25-9.4-103.98-17.66-58.83-15.81-97.7-26.25-136.37 24.85a20.01 20.01 0 0 1-15.97 7.93z"/><g><path d="M1225.58 1284.6H823.37c-11.05 0-20-8.95-20-20s8.95-20 20-20h402.21c11.05 0 20 8.95 20 20s-8.96 20-20 20z" style="fill:#451716"/></g><ellipse class="st20" cx="1269.55" cy="932.8" rx="62.77" ry="88.74"/><circle class="st20" cx="822.42" cy="932.8" r="70.2"/></g></svg>