<svg data-name="01-Hand" xmlns="http://www.w3.org/2000/svg" viewBox="0 0 64 64"><path d="M57.37 13.12A2.409 2.409 0 0 1 59 15.45a9.505 9.505 0 0 1-.54 3.08L53 34v10.33a10.978 10.978 0 0 1-2.2 6.6l-2.6 3.47A5.992 5.992 0 0 0 47 58v5H27a34.063 34.063 0 0 0-.54-4.5 5.936 5.936 0 0 0-2.23-3.72A48.3 48.3 0 0 1 16 46a41.372 41.372 0 0 0-8.6-3.66 3.147 3.147 0 0 1-2.23-4.09A3.408 3.408 0 0 1 8.43 36H11c5.1 0 11 6 13 1s2-6 2-6v-2L21.07 8.73a2.611 2.611 0 0 1 .07-1.44l.11-.34a2.822 2.822 0 0 1 1.62-1.77 2.679 2.679 0 0 1 2.85.59l.71.71a2.712 2.712 0 0 1 .7 1.23l4.66 19.43a1.12 1.12 0 0 0 2.21-.26V4.06a3.059 3.059 0 0 1 3.62-3.01A2.971 2.971 0 0 1 40 4l.01 22.93a1.059 1.059 0 0 0 2.11.14l2.72-20.9a2.489 2.489 0 0 1 1.73-2.04 2.6 2.6 0 0 1 2.61.59l.07.07a2.413 2.413 0 0 1 .74 1.94L48 29l6.41-14.49a2.376 2.376 0 0 1 2.96-1.39z" style="fill:#ffc9bd"/><path d="M42.352 28a3 3 0 0 0 2.976-2.628l2.434-19.467a1.994 1.994 0 0 0-.8-1.848 2.66 2.66 0 0 0-.393.072 2.489 2.489 0 0 0-1.73 2.04l-2.72 20.9A1.067 1.067 0 0 1 41.07 28c-.025 0-.046-.013-.07-.015V28zM52.2 27.076l5.027-12.208a1.994 1.994 0 0 0-.155-1.813 2.364 2.364 0 0 0-2.666 1.454L48 29a3.388 3.388 0 0 0 4.2-1.924zM27.4 35.255l.985-2.626a5.767 5.767 0 0 0 .22-3.324L23.413 6.79a1.991 1.991 0 0 0-1.062-1.336 2.978 2.978 0 0 0-1.1 1.5l-.11.34a2.611 2.611 0 0 0-.07 1.44L26 29v2s0 1-2 6a2.767 2.767 0 0 1-2.037 1.926L22 39a5.77 5.77 0 0 0 5.4-3.745zM35 28a2 2 0 0 0 2-2V3a1.993 1.993 0 0 0-1.076-1.764A3.039 3.039 0 0 0 34 4.059v22.82a1.106 1.106 0 0 1-1 1.1V28z" style="fill:#faa68e"/><path d="M40.969 57a2.145 2.145 0 0 1-1.543-.574 2 2 0 0 0-2.852 0 2.145 2.145 0 0 1-1.543.574h-.516a9.234 9.234 0 0 1-7.142-3.623 7.135 7.135 0 0 0-.936-.961A50.26 50.26 0 0 0 16 46a48.333 48.333 0 0 0 8.23 8.78 6.326 6.326 0 0 1 2.23 3.72A34.063 34.063 0 0 1 27 63h20v-5a6.063 6.063 0 0 1 .086-1z" style="fill:#ffb4a3"/><path d="M57.674 12.164a3.386 3.386 0 0 0-4.174 1.945l-3.964 8.951 1.453-16.246a3.411 3.411 0 0 0-1.04-2.739L49.875 4a3.6 3.6 0 0 0-3.614-.827 3.5 3.5 0 0 0-2.413 2.868l-2.719 20.9.992.129-1.116-.142L41 3.963a3.948 3.948 0 0 0-3.207-3.9A4.059 4.059 0 0 0 33 4.056v22.826c0 .119-.206.144-.233.027L28.1 7.466a3.645 3.645 0 0 0-.968-1.694l-.714-.708a3.71 3.71 0 0 0-3.9-.825A3.792 3.792 0 0 0 20.3 6.631l-.113.335a3.621 3.621 0 0 0-.088 2L25 29.12v1.826c0 .046-.123 1.162-1.931 5.682a2.043 2.043 0 0 1-1.013 1.236c-1.049.438-2.878-.329-4.817-1.14A16.993 16.993 0 0 0 11 35H8.435a4.379 4.379 0 0 0-4.212 2.934 4.148 4.148 0 0 0 2.932 5.379 39.735 39.735 0 0 1 8.165 3.453 48.485 48.485 0 0 0 8.3 8.809 4.934 4.934 0 0 1 1.851 3.093A31.416 31.416 0 0 1 26 63h2a32.368 32.368 0 0 0-.556-4.667 6.926 6.926 0 0 0-2.6-4.343 47.935 47.935 0 0 1-8.027-8.572.977.977 0 0 0-.317-.286 41.976 41.976 0 0 0-8.858-3.76 2.147 2.147 0 0 1-1.516-2.809A2.414 2.414 0 0 1 8.435 37H11a15.326 15.326 0 0 1 5.468 1.569c2.338.979 4.545 1.9 6.364 1.139a3.969 3.969 0 0 0 2.1-2.336C26.851 32.566 27 31.28 27 31v-2a.983.983 0 0 0-.028-.236L22.045 8.5a1.627 1.627 0 0 1 .04-.9l.113-.335a1.826 1.826 0 0 1 1.021-1.156 1.7 1.7 0 0 1 1.793.373l.715.708a1.635 1.635 0 0 1 .433.751l4.662 19.432A2.118 2.118 0 0 0 35 26.882V4.056a2.059 2.059 0 0 1 2.443-2.021A1.952 1.952 0 0 1 39 4l.005 22.928a2.062 2.062 0 0 0 4.107.276L45.832 6.3a1.5 1.5 0 0 1 1.042-1.217 1.625 1.625 0 0 1 1.609.361l.074.072A1.415 1.415 0 0 1 49 6.643l-2 22.268a1 1 0 0 0 1.911.494l6.428-14.529a1.378 1.378 0 0 1 1.726-.806A1.43 1.43 0 0 1 58 15.443a8.483 8.483 0 0 1-.483 2.756l-5.46 15.468A1 1 0 0 0 52 34v10.333a10.058 10.058 0 0 1-2 6L47.4 53.8A7.045 7.045 0 0 0 46 58v5h2v-5a5.03 5.03 0 0 1 1-3l2.6-3.467a12.07 12.07 0 0 0 2.4-7.2V34.171l5.4-15.306a10.482 10.482 0 0 0 .6-3.406 3.424 3.424 0 0 0-2.326-3.295z"/><path d="M49 41c-10.376 0-18.143-9.529-18.22-9.625l-1.561 1.25C29.558 33.048 37.65 43 49 43zM28.5 36.136l-1 1.727C27.61 37.931 39 44.731 39 56h2c0-12.432-11.986-19.566-12.5-19.864z"/></svg>